<svg width="379" height="465" viewBox="0 0 379 465" fill="none" xmlns="http://www.w3.org/2000/svg">
<path d="M156.799 464.067C141.986 464.067 130.237 452.322 130.237 437.514V269.512C130.237 254.704 141.986 242.959 156.799 242.959C171.612 242.959 183.36 254.704 183.36 269.512V437.003C183.36 451.811 171.101 464.067 156.799 464.067Z" fill="black"/>
<path d="M222.691 464.067C207.878 464.067 196.13 452.322 196.13 437.514V269.512C196.13 254.704 207.878 242.959 222.691 242.959C237.504 242.959 249.252 254.704 249.252 269.512V437.003C249.252 451.811 237.504 464.067 222.691 464.067Z" fill="black"/>
<path d="M226.266 326.704H152.712C139.942 326.704 129.727 316.491 129.727 303.725V130.107C129.727 117.341 139.942 107.128 152.712 107.128H225.755C238.525 107.128 248.741 117.341 248.741 130.107V303.725C249.252 316.491 239.036 326.704 226.266 326.704Z" fill="black"/>
<path d="M324.338 232.236C314.122 242.448 297.266 242.448 286.54 232.236L205.835 152.065C195.619 141.852 195.619 125.001 205.835 114.277C216.05 104.065 232.906 104.065 243.633 114.277L324.338 194.448C334.554 205.172 334.554 222.023 324.338 232.236Z" fill="black"/>
<path d="M55.6619 232.236C45.446 222.023 45.446 205.172 55.6619 194.448L136.367 114.277C146.583 104.065 163.439 104.065 174.165 114.277C184.381 124.49 184.381 141.341 174.165 152.065L93.4604 232.236C83.2446 242.959 66.3885 242.959 55.6619 232.236Z" fill="black"/>
<path d="M233.928 48.9152C233.928 73.426 214.007 92.8304 189.489 92.8304C164.971 92.8304 145.05 72.9153 145.05 48.9152C145.05 24.4044 164.971 5 189.489 5C214.007 5 233.928 24.915 233.928 48.9152Z" fill="black"/>
</svg>
